<mxfile host="app.diagrams.net" agent="Mozilla/5.0 (X11; Linux x86_64) AppleWebKit/537.36 (KHTML, like Gecko) Chrome/131.0.0.0 Safari/537.36" version="26.1.0">
  <diagram name="Страница — 1" id="gyLIq6WpV4kldovBGdl1">
    <mxGraphModel dx="1024" dy="628" grid="1" gridSize="10" guides="1" tooltips="1" connect="1" arrows="1" fold="1" page="1" pageScale="1" pageWidth="827" pageHeight="1169" math="0" shadow="0">
      <root>
        <mxCell id="0" />
        <mxCell id="1" parent="0" />
        <mxCell id="F7aRKosZZUAkz9N-hCLb-3" value="" style="html=1;whiteSpace=wrap;" vertex="1" parent="1">
          <mxGeometry x="180" y="980" width="110" height="50" as="geometry" />
        </mxCell>
        <mxCell id="F7aRKosZZUAkz9N-hCLb-5" value="" style="edgeStyle=orthogonalEdgeStyle;rounded=0;orthogonalLoop=1;jettySize=auto;html=1;" edge="1" parent="1" source="F7aRKosZZUAkz9N-hCLb-4" target="F7aRKosZZUAkz9N-hCLb-3">
          <mxGeometry relative="1" as="geometry" />
        </mxCell>
        <mxCell id="F7aRKosZZUAkz9N-hCLb-4" value="Обозначение Интерфейса" style="html=1;whiteSpace=wrap;" vertex="1" parent="1">
          <mxGeometry x="30" y="980" width="110" height="50" as="geometry" />
        </mxCell>
        <mxCell id="F7aRKosZZUAkz9N-hCLb-9" value="" style="edgeStyle=orthogonalEdgeStyle;rounded=0;orthogonalLoop=1;jettySize=auto;html=1;" edge="1" parent="1" source="F7aRKosZZUAkz9N-hCLb-7" target="F7aRKosZZUAkz9N-hCLb-8">
          <mxGeometry relative="1" as="geometry" />
        </mxCell>
        <mxCell id="F7aRKosZZUAkz9N-hCLb-7" value="&lt;p style=&quot;margin:0px;margin-top:4px;text-align:center;&quot;&gt;&lt;b&gt;Обозначение класса&lt;/b&gt;&lt;/p&gt;&lt;hr size=&quot;1&quot; style=&quot;border-style:solid;&quot;&gt;&lt;p style=&quot;margin:0px;margin-left:4px;&quot;&gt;+ field: Type&lt;/p&gt;&lt;hr size=&quot;1&quot; style=&quot;border-style:solid;&quot;&gt;&lt;p style=&quot;margin:0px;margin-left:4px;&quot;&gt;+ method(): Type&lt;/p&gt;" style="verticalAlign=top;align=left;overflow=fill;html=1;whiteSpace=wrap;" vertex="1" parent="1">
          <mxGeometry x="30" y="1060" width="160" height="90" as="geometry" />
        </mxCell>
        <mxCell id="F7aRKosZZUAkz9N-hCLb-8" value="&lt;p style=&quot;margin:0px;margin-top:4px;text-align:center;&quot;&gt;&lt;b&gt;Class&lt;/b&gt;&lt;/p&gt;&lt;hr size=&quot;1&quot; style=&quot;border-style:solid;&quot;/&gt;&lt;p style=&quot;margin:0px;margin-left:4px;&quot;&gt;+ field: Type&lt;/p&gt;&lt;hr size=&quot;1&quot; style=&quot;border-style:solid;&quot;/&gt;&lt;p style=&quot;margin:0px;margin-left:4px;&quot;&gt;+ method(): Type&lt;/p&gt;" style="verticalAlign=top;align=left;overflow=fill;html=1;whiteSpace=wrap;" vertex="1" parent="1">
          <mxGeometry x="253" y="1060" width="160" height="90" as="geometry" />
        </mxCell>
        <mxCell id="F7aRKosZZUAkz9N-hCLb-10" value="" style="shape=process;whiteSpace=wrap;html=1;backgroundOutline=1;" vertex="1" parent="1">
          <mxGeometry x="210" y="1190" width="120" height="60" as="geometry" />
        </mxCell>
        <mxCell id="F7aRKosZZUAkz9N-hCLb-12" value="" style="edgeStyle=orthogonalEdgeStyle;rounded=0;orthogonalLoop=1;jettySize=auto;html=1;" edge="1" parent="1" source="F7aRKosZZUAkz9N-hCLb-11" target="F7aRKosZZUAkz9N-hCLb-10">
          <mxGeometry relative="1" as="geometry" />
        </mxCell>
        <mxCell id="F7aRKosZZUAkz9N-hCLb-11" value="Обозначение абстрактного класса" style="shape=process;whiteSpace=wrap;html=1;backgroundOutline=1;" vertex="1" parent="1">
          <mxGeometry x="30" y="1190" width="120" height="60" as="geometry" />
        </mxCell>
      </root>
    </mxGraphModel>
  </diagram>
</mxfile>
